<?xml version="1.0" standalone="no"?>
<!DOCTYPE svg PUBLIC "-//W3C//DTD SVG 20010904//EN"
 "http://www.w3.org/TR/2001/REC-SVG-20010904/DTD/svg10.dtd">
<svg version="1.0" xmlns="http://www.w3.org/2000/svg"
 width="1175.000000pt" height="1175.000000pt" viewBox="0 0 1175.000000 1175.000000"
 preserveAspectRatio="xMidYMid meet">
<metadata>
Created by potrace 1.11, written by Peter Selinger 2001-2013
</metadata>
<g transform="translate(0.000000,1175.000000) scale(0.100000,-0.100000)"
fill="#000000" stroke="none">
<path d="M2438 9188 c-56 -112 -77 -245 -57 -363 14 -88 109 -346 145 -396 5
-8 18 -32 29 -54 30 -62 180 -287 209 -314 l26 -24 -23 -12 c-12 -6 -49 -22
-82 -35 -74 -29 -404 -196 -426 -216 -8 -8 -19 -14 -23 -14 -30 0 -423 -283
-564 -407 -105 -92 -359 -346 -463 -463 -235 -265 -487 -644 -651 -980 -53
-109 -132 -258 -216 -410 -13 -25 -55 -101 -92 -170 -37 -69 -79 -145 -92
-170 -25 -44 -48 -86 -122 -222 l-37 -67 68 23 c38 13 118 42 178 64 205 75
370 135 440 159 39 13 79 28 90 33 11 5 83 31 160 59 77 27 272 97 434 156
225 81 639 215 666 215 3 0 -94 -217 -159 -355 -13 -27 -22 -52 -20 -54 2 -2
25 3 51 12 140 45 319 101 328 103 6 2 25 7 43 13 17 5 32 7 32 3 0 -4 -16
-52 -36 -107 -40 -114 -181 -517 -194 -555 -5 -14 -33 -96 -63 -182 -45 -129
-51 -156 -36 -148 10 6 92 56 182 113 90 56 172 107 183 114 10 6 75 47 143
90 69 43 139 87 158 98 18 11 95 59 170 107 76 47 174 106 217 129 l79 42 -8
-44 c-4 -24 -8 -98 -8 -164 0 -136 5 -182 38 -308 9 -34 18 -69 20 -77 5 -19
124 -447 133 -478 7 -22 14 -19 132 72 68 53 127 96 131 96 4 0 10 -17 14 -37
13 -69 64 -188 113 -261 27 -40 111 -138 188 -218 76 -80 160 -168 185 -195
25 -27 48 -49 52 -49 4 0 78 96 166 213 136 181 292 359 306 346 2 -2 103
-102 224 -222 l221 -219 87 48 c49 26 103 56 121 66 l33 18 10 -28 c6 -15 26
-70 46 -122 19 -52 40 -108 47 -125 7 -16 53 -136 101 -265 48 -129 91 -239
95 -243 4 -5 30 47 58 115 28 68 55 123 61 123 8 0 126 -175 230 -343 14 -23
31 -40 37 -38 6 2 35 -30 64 -72 29 -42 55 -79 56 -81 3 -3 70 39 99 62 6 5
103 73 216 153 l207 144 -4 58 c-2 31 -6 80 -9 108 -3 41 1 61 20 100 83 165
325 394 635 601 359 240 847 464 1250 574 25 7 50 14 55 15 6 2 21 5 35 8 14
3 39 9 55 13 17 4 32 7 35 8 42 8 83 16 115 21 22 3 51 8 65 10 14 3 90 7 170
10 144 5 146 5 270 -31 69 -20 132 -38 140 -40 22 -5 113 -39 215 -78 96 -37
248 -72 367 -85 40 -4 171 -7 291 -6 l217 1 1 -31 c2 -65 9 -118 24 -196 3
-14 8 -45 11 -70 3 -25 7 -52 9 -60 5 -16 8 -38 24 -140 15 -95 23 -144 25
-155 1 -5 8 -49 16 -97 7 -49 17 -88 23 -88 17 0 539 375 591 425 176 169 318
444 435 840 18 61 29 106 47 190 31 142 35 239 19 413 -8 86 -6 80 -38 209
-73 294 -263 598 -534 853 -209 197 -347 283 -783 488 -47 22 -197 94 -333
161 -137 67 -252 121 -257 121 -5 0 -86 78 -182 173 -178 177 -197 195 -308
286 -161 131 -335 250 -485 331 -44 24 -98 53 -120 65 -22 12 -85 40 -140 64
-55 23 -109 47 -120 52 -25 11 -227 77 -257 83 -30 7 -115 31 -313 91 -326 99
-627 176 -853 220 -13 2 -31 6 -40 9 -33 10 -344 52 -449 62 -133 11 -174 14
-288 21 -228 12 -859 5 -1015 -11 -278 -30 -564 -23 -985 24 -93 11 -181 22
-195 25 -13 2 -42 7 -65 10 -278 40 -574 137 -748 243 -37 23 -69 42 -71 42
-11 0 -384 231 -481 298 -181 124 -193 132 -202 132 -5 0 -21 -24 -35 -52z"/>
</g>
</svg>
